<svg xmlns="http://www.w3.org/2000/svg" viewBox="0 0 30 120.24">
  <defs>
    <mask id="invertedMask">
      <rect x="0" y="0" width="30" height="120.24" fill="white"/>
      <path fill="black" d="M261.4,269.77a4.7,4.7,0,0,1,9.39-.07v.17a4.76,4.76,0,0,1-4.79,4.59,4.6,4.6,0,0,1-4.6-4.62Z" transform="translate(-246.19 -201.36)"/><path fill="black" d="M251.33,269.77a4.7,4.7,0,1,1,4.69,4.69h-.09a4.61,4.61,0,0,1-4.6-4.62Z" transform="translate(-246.19 -201.36)"/><path fill="black" d="M251.62,279.94a4.39,4.39,0,0,1,4.37-4.4h0a4.48,4.48,0,0,1,4.4,4.3,4.4,4.4,0,0,1-8.8.1Z" transform="translate(-246.19 -201.36)"/><path fill="black" d="M261.69,279.94a4.45,4.45,0,0,1,4.4-4.4,4.36,4.36,0,0,1,4.31,4.4,4.45,4.45,0,0,1-4.4,4.4A4.59,4.59,0,0,1,261.69,279.94Z" transform="translate(-246.19 -201.36)"/><path fill="black" d="M246.19,284.32a4.43,4.43,0,0,0,4.26-4.38,4.36,4.36,0,0,0-4.26-4.4Z" transform="translate(-246.19 -201.36)"/><path fill="black" d="M246.19,293.72h.06a4,4,0,0,0,3.91-4,4.08,4.08,0,0,0-4-3.9Z" transform="translate(-246.19 -201.36)"/><path fill="black" d="M252.12,289.71a4,4,0,1,1,3.91,4h0a3.94,3.94,0,0,1-3.9-4Z" transform="translate(-246.19 -201.36)"/><path fill="black" d="M262.19,289.62a4,4,0,1,1,3.81,4.11,4,4,0,0,1-3.81-4.11Z" transform="translate(-246.19 -201.36)"/><path fill="black" d="M256,303.21a3.29,3.29,0,0,1-3.32-3.27v-.05a3.21,3.21,0,0,1,3.08-3.33h.34a3.33,3.33,0,0,1-.1,6.65Z" transform="translate(-246.19 -201.36)"/><path fill="black" d="M269.42,299.89a3.29,3.29,0,0,1-3.27,3.32h-.06a3.33,3.33,0,1,1,0-6.65h.13a3.15,3.15,0,0,1,3.22,3.09A1.92,1.92,0,0,1,269.42,299.89Z" transform="translate(-246.19 -201.36)"/><path fill="black" d="M246.19,303.21h.3a3.16,3.16,0,0,0,3-3.33v-.12a3.31,3.31,0,0,0-3.28-3.2Z" transform="translate(-246.19 -201.36)"/><path fill="black" d="M246.19,312.4h.05a2.61,2.61,0,0,0,2.55-2.65v-.15a2.48,2.48,0,0,0-2.55-2.39h-.05Z" transform="translate(-246.19 -201.36)"/><path fill="black" d="M268.74,309.76a2.6,2.6,0,1,1-2.65-2.64,2.64,2.64,0,0,1,2.65,2.62Z" transform="translate(-246.19 -201.36)"/><path fill="black" d="M256,312.3a2.48,2.48,0,0,1-2.54-2.43v-.21a2.55,2.55,0,0,1,2.55-2.54h.09a2.59,2.59,0,0,1-.07,5.18Z" transform="translate(-246.19 -201.36)"/><path fill="black" d="M255.63,321.3c-.29-.49-.88-1.07-.88-1.56a1.94,1.94,0,0,1,1.27-1.18,1.07,1.07,0,0,1,1.21.91,1.18,1.18,0,0,1,0,.46c-.1.49-.69,1-1.08,1.37Z" transform="translate(-246.19 -201.36)"/><path fill="black" d="M246.19,321.54s0,0,.05.06c.59-.79,1.08-1.28,1.08-1.86.18-.74-.41-1.21-1.13-1.26Z" transform="translate(-246.19 -201.36)"/><path fill="black" d="M246.19,274.64a4.82,4.82,0,0,0,4.65-4.58.86.86,0,0,1,0-.16,4.69,4.69,0,0,0-4.64-4.76h0Z" transform="translate(-246.19 -201.36)"/><path fill="black" d="M265.8,321.3c-.29-.49-1-1.07-.88-1.56s.79-1.08,1.27-1.18a1.07,1.07,0,0,1,1.21.92,1.13,1.13,0,0,1,0,.45c-.1.49-.69,1-1.08,1.37Z" transform="translate(-246.19 -201.36)"/><path fill="black" d="M246.19,201.36v63.75c2.32.11,3.88-1.37,4.94-3.75,1.18,2.74,3,4,5.48,3.72a5,5,0,0,0,4.3-3.82c.59-2.34-.49-4.3-2.93-5.77,1.07-1.07,2.15-2.25,3.13-3.13.88,1,2.05,2.06,3.13,3.13q-3.67,2.2-2.94,5.58a5,5,0,0,0,4,3.9c2.45.39,4.21-.78,5.77-3.61,1.66,2.83,2.86,3.89,5.11,3.79,0-35.62,0-54.48,0-63.79Zm7.87,53.74c-.88,1-1.95,2.15-2.93,3.13-.88-.88-2-2.05-2.93-3.13.88-.78,2-1.76,2.93-2.64h0A36.55,36.55,0,0,0,254.06,255.1Zm19.86,0c-.88,1.07-2,2.15-3.13,3.33a4.67,4.67,0,0,0-2.94-3.13l3.13-2.84c1,.88,2.06,1.86,2.94,2.64Zm-24.25-29.93a14.59,14.59,0,0,0,1.46-1.27,7.31,7.31,0,0,0,1.37,1.18L251,226.54Zm-.39,10.08c.58-.59,1.17-1.18,1.85-1.76.59.59,1.18,1.17,1.86,1.76-.58.58-1.17,1.27-1.86,1.95C250.55,236.62,250,235.93,249.28,235.25Zm-.4,9.68h0c.4-.39,1.28-1.18,2.25-2.05.79.68,1.67,1.56,2.16,2-.79.88-1.67,1.76-2.16,2.25C250.64,246.69,249.76,245.71,248.88,244.93Zm24.47-.13c-.81.73-1.55,1.47-2.28,2.2-.78-.73-1.51-1.45-2.24-2.17.49-.39,1.37-1.17,2.35-2Zm-9.6.42c-.88,1-1.86,2.06-2.64,2.94-.79-1-1.77-2-2.64-2.94.78-.78,1.76-1.76,2.64-2.54h0C262,243.56,262.87,244.44,263.75,245.22Zm-4.5-9.68c.68-.68,1.27-1.37,1.86-2,.49.49,1.07,1.18,1.76,1.86-.49.59-1.18,1.27-1.86,2.06C260.42,236.81,259.74,236.13,259.25,235.54Zm13.69-.29c-.59.68-1.27,1.27-1.86,1.95-.68-.59-1.27-1.27-1.95-1.95h0c.68-.59,1.27-1.17,1.95-1.76C271.67,234.07,272.25,234.66,272.94,235.25Zm-.49-10.08c-.59.49-1.07,1-1.56,1.37a17.66,17.66,0,0,1-1.27-1.37A13.63,13.63,0,0,0,271,223.9C271.57,224.39,272.06,224.78,272.45,225.17Zm-11.34-1.36a20.86,20.86,0,0,1,1.56,1.56c-.49.58-1.07,1.07-1.46,1.56-.59-.49-1.18-1-1.76-1.56.58-.49,1.07-1,1.66-1.57Zm-10-9.39a9.17,9.17,0,0,0,1,.88,9,9,0,0,0-1,1,7.34,7.34,0,0,1-.88-1Zm20.83.88a10.13,10.13,0,0,0-.88,1l-1-1a7.42,7.42,0,0,1,.88-1Zm-9.78-.1c-.39.39-.68.78-1.07,1.17h0a5,5,0,0,1-1-1.07,9.18,9.18,0,0,1,1-1.08A10,10,0,0,1,262.18,215.2Zm-1.07-10.66a7.22,7.22,0,0,0,.78.88l-.78.78-.88-.88c.29-.29.58-.49.88-.78Z" transform="translate(-246.19 -201.36)"/><path fill="black" d="M276.19,275.55h-.05a4.44,4.44,0,0,0-4.4,4.4,4.57,4.57,0,0,0,4.3,4.4l.15,0Z" transform="translate(-246.19 -201.36)"/><path fill="black" d="M276.19,285.82h-.06a4,4,0,0,0,.06,7.91Z" transform="translate(-246.19 -201.36)"/><path fill="black" d="M276.19,296.57H276a3.33,3.33,0,0,0-3.21,3.44,3.36,3.36,0,0,0,3.38,3.22Z" transform="translate(-246.19 -201.36)"/><path fill="black" d="M276.19,307.23h-.05a2.59,2.59,0,0,0,.05,5.18Z" transform="translate(-246.19 -201.36)"/><path fill="black" d="M276.19,318.52H276a1.22,1.22,0,0,0-.38,0,1.1,1.1,0,0,0-.79,1.34c.19.57.75,1,1.32,1.7Z" transform="translate(-246.19 -201.36)"/><path fill="black" d="M276.19,265.15a4.68,4.68,0,0,0-4.74,4.63,5,5,0,0,0,4.59,4.89l.15,0Z" transform="translate(-246.19 -201.36)"/>
    </mask>
  </defs>
  <rect x="0" y="0" width="30" height="120.24" fill="white" mask="url(#invertedMask)"/>
</svg>